<svg width="71" height="21" viewBox="0 0 71 21" fill="none" xmlns="http://www.w3.org/2000/svg">
<path d="M0.907227 20.2308H14.4643V17.2154H4.30339V1.38462H0.907227V20.2308Z" fill="#FFFDFB"/>
<path d="M17.6711 3.83462H21.2605V0.738464H17.6711V3.83462ZM17.8091 20.2308H21.1501V6.01539H17.8091V20.2308Z" fill="#FFFDFB"/>
<path d="M30.1273 20.3385H33.1369L39.1009 6.01539H35.5943L31.6459 16.4615L27.7252 6.01539H24.1357L30.1273 20.3385Z" fill="#FFFDFB"/>
<path d="M46.9626 20.5269C49.2267 20.5269 50.5796 19.3692 51.5184 18.0231V20.2308H54.8869V6.01539H51.5184V14.0385C51.5184 16.2462 50.1654 17.5385 48.2327 17.5385C46.2447 17.5385 45.1126 16.3 45.1126 14.0923V6.01539H41.7717V15.0615C41.7717 18.3731 43.6768 20.5269 46.9626 20.5269Z" fill="#FFFDFB"/>
<path d="M64.0571 20.5C67.0943 20.5 69.4688 19.0192 69.4688 16.0308V15.9769C69.4688 13.4192 67.0667 12.4769 64.9406 11.8308C63.2287 11.2923 61.6549 10.8615 61.6549 9.81154V9.7577C61.6549 8.95 62.4004 8.3577 63.6981 8.3577C64.913 8.3577 66.404 8.86923 67.8122 9.70385L69.1375 7.38846C67.5913 6.39231 65.6033 5.77308 63.781 5.77308C60.8818 5.77308 58.5901 7.41539 58.5901 10.1077V10.1615C58.5901 12.8808 60.9922 13.7423 63.1459 14.3346C64.8578 14.8462 66.404 15.2231 66.404 16.3269V16.3808C66.404 17.3231 65.5757 17.9154 64.1399 17.9154C62.6489 17.9154 60.9646 17.3231 59.3632 16.1654L57.8722 18.3731C59.6945 19.7731 61.9862 20.5 64.0571 20.5Z" fill="#FFFDFB"/>
</svg>
